<mxfile host="app.diagrams.net" modified="2024-02-19T02:57:06.433Z" agent="Mozilla/5.0 (Windows NT 10.0; Win64; x64) AppleWebKit/537.36 (KHTML, like Gecko) Chrome/121.0.0.0 Safari/537.36 Edg/121.0.0.0" etag="HWhFLjxYGOWjAJQ1w_z3" version="23.1.5" type="github">
  <diagram name="Page-1" id="74e2e168-ea6b-b213-b513-2b3c1d86103e">
    <mxGraphModel dx="1216" dy="1512" grid="1" gridSize="10" guides="1" tooltips="1" connect="1" arrows="1" fold="1" page="1" pageScale="1" pageWidth="1100" pageHeight="850" background="none" math="0" shadow="0">
      <root>
        <mxCell id="0" />
        <mxCell id="1" parent="0" />
        <mxCell id="77e6c97f196da883-1" value="172是否需要人工审核逻辑整理" style="swimlane;html=1;childLayout=stackLayout;startSize=20;rounded=0;shadow=0;labelBackgroundColor=none;strokeWidth=1;fontFamily=Verdana;fontSize=8;align=center;" parent="1" vertex="1">
          <mxGeometry x="40" y="-800" width="740" height="1640" as="geometry" />
        </mxCell>
        <mxCell id="77e6c97f196da883-2" value="判断是否需要人工审核" style="swimlane;html=1;startSize=20;" parent="77e6c97f196da883-1" vertex="1">
          <mxGeometry y="20" width="140" height="1620" as="geometry" />
        </mxCell>
        <mxCell id="77e6c97f196da883-8" value="不需要人工审核" style="rounded=1;whiteSpace=wrap;html=1;shadow=0;labelBackgroundColor=none;strokeWidth=1;fontFamily=Verdana;fontSize=8;align=center;" parent="77e6c97f196da883-2" vertex="1">
          <mxGeometry x="20" y="30" width="100" height="330" as="geometry" />
        </mxCell>
        <mxCell id="Ntkf2nLQN6CGH8CM93F0-73" value="需要人工审核" style="rounded=1;whiteSpace=wrap;html=1;shadow=0;labelBackgroundColor=none;strokeWidth=1;fontFamily=Verdana;fontSize=8;align=center;" parent="77e6c97f196da883-2" vertex="1">
          <mxGeometry x="20" y="460" width="100" height="990" as="geometry" />
        </mxCell>
        <mxCell id="77e6c97f196da883-3" value="mut_info" style="swimlane;html=1;startSize=20;" parent="77e6c97f196da883-1" vertex="1">
          <mxGeometry x="140" y="20" width="140" height="1620" as="geometry" />
        </mxCell>
        <mxCell id="Ntkf2nLQN6CGH8CM93F0-67" value="mutNet=True" style="rounded=1;whiteSpace=wrap;html=1;shadow=0;labelBackgroundColor=none;strokeWidth=1;fontFamily=Verdana;fontSize=8;align=center;" parent="77e6c97f196da883-3" vertex="1">
          <mxGeometry x="20" y="200" width="100" height="60" as="geometry" />
        </mxCell>
        <mxCell id="Ntkf2nLQN6CGH8CM93F0-69" value="mutNet=Check" style="rounded=1;whiteSpace=wrap;html=1;shadow=0;labelBackgroundColor=none;strokeWidth=1;fontFamily=Verdana;fontSize=8;align=center;" parent="77e6c97f196da883-3" vertex="1">
          <mxGeometry x="20" y="370" width="100" height="1080" as="geometry" />
        </mxCell>
        <mxCell id="Ntkf2nLQN6CGH8CM93F0-68" value="mutNet=False" style="rounded=1;whiteSpace=wrap;html=1;shadow=0;labelBackgroundColor=none;strokeWidth=1;fontFamily=Verdana;fontSize=8;align=center;strokeColor=default;" parent="77e6c97f196da883-3" vertex="1">
          <mxGeometry x="20" y="40" width="100" height="120" as="geometry" />
        </mxCell>
        <mxCell id="77e6c97f196da883-5" value="&lt;code&gt;CT-FILTER/verify/varType&lt;/code&gt;" style="swimlane;html=1;startSize=20;fontStyle=0" parent="77e6c97f196da883-1" vertex="1">
          <mxGeometry x="280" y="20" width="460" height="1620" as="geometry" />
        </mxCell>
        <mxCell id="77e6c97f196da883-21" value="Warning:&amp;nbsp;talt-freq-100%&amp;amp;hotspot" style="rounded=1;whiteSpace=wrap;html=1;shadow=0;labelBackgroundColor=none;strokeWidth=1;fontFamily=Verdana;fontSize=8;align=center;" parent="77e6c97f196da883-5" vertex="1">
          <mxGeometry x="30.5" y="520" width="100" height="60" as="geometry" />
        </mxCell>
        <mxCell id="77e6c97f196da883-22" value="Warning: talt-fc-low&amp;amp;hotspot" style="rounded=1;whiteSpace=wrap;html=1;shadow=0;labelBackgroundColor=none;strokeWidth=1;fontFamily=Verdana;fontSize=8;align=center;" parent="77e6c97f196da883-5" vertex="1">
          <mxGeometry x="30.5" y="590" width="100" height="60" as="geometry" />
        </mxCell>
        <mxCell id="77e6c97f196da883-23" value="Warning:&amp;nbsp;total-strand-bias&amp;amp;hotspot" style="rounded=1;whiteSpace=wrap;html=1;shadow=0;labelBackgroundColor=none;strokeWidth=1;fontFamily=Verdana;fontSize=8;align=center;" parent="77e6c97f196da883-5" vertex="1">
          <mxGeometry x="29.5" y="660" width="100" height="60" as="geometry" />
        </mxCell>
        <mxCell id="Ntkf2nLQN6CGH8CM93F0-5" value="Warning:&amp;nbsp;talt-rc-low&amp;amp;strand-bias-high&amp;amp;hotspot" style="rounded=1;whiteSpace=wrap;html=1;shadow=0;labelBackgroundColor=none;strokeWidth=1;fontFamily=Verdana;fontSize=8;align=center;" parent="77e6c97f196da883-5" vertex="1">
          <mxGeometry x="29.5" y="740" width="100" height="60" as="geometry" />
        </mxCell>
        <mxCell id="Ntkf2nLQN6CGH8CM93F0-3" value="Warning:&amp;nbsp;talt-rc-low&amp;amp;strand-bias-high" style="rounded=1;whiteSpace=wrap;html=1;shadow=0;labelBackgroundColor=none;strokeWidth=1;fontFamily=Verdana;fontSize=8;align=center;" parent="77e6c97f196da883-5" vertex="1">
          <mxGeometry x="29.5" y="810" width="100" height="60" as="geometry" />
        </mxCell>
        <mxCell id="Ntkf2nLQN6CGH8CM93F0-2" value="Warning:&amp;nbsp;talt-freq-low&amp;amp;hotspot" style="rounded=1;whiteSpace=wrap;html=1;shadow=0;labelBackgroundColor=none;strokeWidth=1;fontFamily=Verdana;fontSize=8;align=center;" parent="77e6c97f196da883-5" vertex="1">
          <mxGeometry x="30.5" y="890" width="100" height="60" as="geometry" />
        </mxCell>
        <mxCell id="Ntkf2nLQN6CGH8CM93F0-36" value="Warning:&amp;nbsp;talt-freq-low" style="rounded=1;whiteSpace=wrap;html=1;shadow=0;labelBackgroundColor=none;strokeWidth=1;fontFamily=Verdana;fontSize=8;align=center;" parent="77e6c97f196da883-5" vertex="1">
          <mxGeometry x="30" y="1240" width="100" height="60" as="geometry" />
        </mxCell>
        <mxCell id="Ntkf2nLQN6CGH8CM93F0-37" value="Warning:&amp;nbsp;talt-merge-freq-high&amp;amp;hotspot" style="rounded=1;whiteSpace=wrap;html=1;shadow=0;labelBackgroundColor=none;strokeWidth=1;fontFamily=Verdana;fontSize=8;align=center;" parent="77e6c97f196da883-5" vertex="1">
          <mxGeometry x="30.5" y="960" width="100" height="60" as="geometry" />
        </mxCell>
        <mxCell id="Ntkf2nLQN6CGH8CM93F0-38" value="Warning:&amp;nbsp;talt-merge-freq-high&amp;amp;hotspot" style="rounded=1;whiteSpace=wrap;html=1;shadow=0;labelBackgroundColor=none;strokeWidth=1;fontFamily=Verdana;fontSize=8;align=center;" parent="77e6c97f196da883-5" vertex="1">
          <mxGeometry x="30.5" y="1100" width="100" height="60" as="geometry" />
        </mxCell>
        <mxCell id="Ntkf2nLQN6CGH8CM93F0-40" value="Warning:&amp;nbsp;germline-divergence&amp;amp;hotspot" style="rounded=1;whiteSpace=wrap;html=1;shadow=0;labelBackgroundColor=none;strokeWidth=1;fontFamily=Verdana;fontSize=8;align=center;" parent="77e6c97f196da883-5" vertex="1">
          <mxGeometry x="30" y="1315" width="100" height="60" as="geometry" />
        </mxCell>
        <mxCell id="Ntkf2nLQN6CGH8CM93F0-39" value="Warning:&amp;nbsp;germline-divergence" style="rounded=1;whiteSpace=wrap;html=1;shadow=0;labelBackgroundColor=none;strokeWidth=1;fontFamily=Verdana;fontSize=8;align=center;" parent="77e6c97f196da883-5" vertex="1">
          <mxGeometry x="30.5" y="1030" width="100" height="60" as="geometry" />
        </mxCell>
        <mxCell id="Ntkf2nLQN6CGH8CM93F0-42" value="Warning:&amp;nbsp;blacklist&amp;amp;hotspot" style="rounded=1;whiteSpace=wrap;html=1;shadow=0;labelBackgroundColor=none;strokeWidth=1;fontFamily=Verdana;fontSize=8;align=center;" parent="77e6c97f196da883-5" vertex="1">
          <mxGeometry x="30.5" y="1170" width="100" height="60" as="geometry" />
        </mxCell>
        <mxCell id="Ntkf2nLQN6CGH8CM93F0-41" value="Warning:&amp;nbsp;blacklist" style="rounded=1;whiteSpace=wrap;html=1;shadow=0;labelBackgroundColor=none;strokeWidth=1;fontFamily=Verdana;fontSize=8;align=center;" parent="77e6c97f196da883-5" vertex="1">
          <mxGeometry x="30" y="1390" width="100" height="60" as="geometry" />
        </mxCell>
        <mxCell id="74XeSMvvcMfbmq75COJw-82" value="CT-FILTER" style="swimlane;fontStyle=0;childLayout=stackLayout;horizontal=1;startSize=26;fillColor=none;horizontalStack=0;resizeParent=1;resizeParentMax=0;resizeLast=0;collapsible=1;marginBottom=0;html=1;" parent="77e6c97f196da883-5" vertex="1">
          <mxGeometry x="29.5" y="40" width="180.5" height="120" as="geometry" />
        </mxCell>
        <mxCell id="74XeSMvvcMfbmq75COJw-83" value="Negative:&amp;nbsp;talt-freq-100%" style="text;strokeColor=none;fillColor=none;align=left;verticalAlign=top;spacingLeft=4;spacingRight=4;overflow=hidden;rotatable=0;points=[[0,0.5],[1,0.5]];portConstraint=eastwest;whiteSpace=wrap;html=1;" parent="74XeSMvvcMfbmq75COJw-82" vertex="1">
          <mxGeometry y="26" width="180.5" height="26" as="geometry" />
        </mxCell>
        <mxCell id="74XeSMvvcMfbmq75COJw-84" value="Negative:&amp;nbsp;talt-fc-low" style="text;strokeColor=none;fillColor=none;align=left;verticalAlign=top;spacingLeft=4;spacingRight=4;overflow=hidden;rotatable=0;points=[[0,0.5],[1,0.5]];portConstraint=eastwest;whiteSpace=wrap;html=1;" parent="74XeSMvvcMfbmq75COJw-82" vertex="1">
          <mxGeometry y="52" width="180.5" height="26" as="geometry" />
        </mxCell>
        <mxCell id="74XeSMvvcMfbmq75COJw-85" value="Negative:&amp;nbsp;total-strand-bias" style="text;strokeColor=none;fillColor=none;align=left;verticalAlign=top;spacingLeft=4;spacingRight=4;overflow=hidden;rotatable=0;points=[[0,0.5],[1,0.5]];portConstraint=eastwest;whiteSpace=wrap;html=1;" parent="74XeSMvvcMfbmq75COJw-82" vertex="1">
          <mxGeometry y="78" width="180.5" height="42" as="geometry" />
        </mxCell>
        <mxCell id="74XeSMvvcMfbmq75COJw-87" value="CT-FILTER" style="swimlane;fontStyle=0;childLayout=stackLayout;horizontal=1;startSize=26;fillColor=none;horizontalStack=0;resizeParent=1;resizeParentMax=0;resizeLast=0;collapsible=1;marginBottom=0;html=1;" parent="77e6c97f196da883-5" vertex="1">
          <mxGeometry x="30.5" y="200" width="140" height="52" as="geometry" />
        </mxCell>
        <mxCell id="74XeSMvvcMfbmq75COJw-88" value="Positive(:Hotspot)" style="text;strokeColor=none;fillColor=none;align=left;verticalAlign=top;spacingLeft=4;spacingRight=4;overflow=hidden;rotatable=0;points=[[0,0.5],[1,0.5]];portConstraint=eastwest;whiteSpace=wrap;html=1;" parent="74XeSMvvcMfbmq75COJw-87" vertex="1">
          <mxGeometry y="26" width="140" height="26" as="geometry" />
        </mxCell>
        <mxCell id="74XeSMvvcMfbmq75COJw-91" value="verify" style="swimlane;fontStyle=0;childLayout=stackLayout;horizontal=1;startSize=26;fillColor=none;horizontalStack=0;resizeParent=1;resizeParentMax=0;resizeLast=0;collapsible=1;marginBottom=0;html=1;" parent="77e6c97f196da883-5" vertex="1">
          <mxGeometry x="212" y="200" width="90" height="52" as="geometry" />
        </mxCell>
        <mxCell id="74XeSMvvcMfbmq75COJw-92" value="verify=no" style="text;strokeColor=none;fillColor=none;align=left;verticalAlign=top;spacingLeft=4;spacingRight=4;overflow=hidden;rotatable=0;points=[[0,0.5],[1,0.5]];portConstraint=eastwest;whiteSpace=wrap;html=1;" parent="74XeSMvvcMfbmq75COJw-91" vertex="1">
          <mxGeometry y="26" width="90" height="26" as="geometry" />
        </mxCell>
        <mxCell id="74XeSMvvcMfbmq75COJw-94" value="varType" style="swimlane;fontStyle=0;childLayout=stackLayout;horizontal=1;startSize=26;fillColor=none;horizontalStack=0;resizeParent=1;resizeParentMax=0;resizeLast=0;collapsible=1;marginBottom=0;html=1;" parent="77e6c97f196da883-5" vertex="1">
          <mxGeometry x="350" y="200" width="90" height="52" as="geometry" />
        </mxCell>
        <mxCell id="74XeSMvvcMfbmq75COJw-95" value="varType=." style="text;strokeColor=none;fillColor=none;align=left;verticalAlign=top;spacingLeft=4;spacingRight=4;overflow=hidden;rotatable=0;points=[[0,0.5],[1,0.5]];portConstraint=eastwest;whiteSpace=wrap;html=1;" parent="74XeSMvvcMfbmq75COJw-94" vertex="1">
          <mxGeometry y="26" width="90" height="26" as="geometry" />
        </mxCell>
        <mxCell id="a5Jmv1ovsEIgKHmmvxp4-5" value="and" style="text;html=1;align=center;verticalAlign=middle;resizable=0;points=[];autosize=1;strokeColor=none;fillColor=none;" vertex="1" parent="77e6c97f196da883-5">
          <mxGeometry x="305" y="211" width="40" height="30" as="geometry" />
        </mxCell>
        <mxCell id="a5Jmv1ovsEIgKHmmvxp4-6" value="and" style="text;html=1;align=center;verticalAlign=middle;resizable=0;points=[];autosize=1;strokeColor=none;fillColor=none;" vertex="1" parent="77e6c97f196da883-5">
          <mxGeometry x="165.5" y="211" width="40" height="30" as="geometry" />
        </mxCell>
        <mxCell id="77e6c97f196da883-11" value="verify=yes" style="rounded=1;whiteSpace=wrap;html=1;shadow=0;labelBackgroundColor=none;strokeWidth=1;fontFamily=Verdana;fontSize=8;align=center;" parent="77e6c97f196da883-5" vertex="1">
          <mxGeometry x="210" y="400" width="100" height="60" as="geometry" />
        </mxCell>
        <mxCell id="74XeSMvvcMfbmq75COJw-44" value="&lt;h1&gt;&lt;br&gt;&lt;/h1&gt;" style="text;html=1;spacing=5;spacingTop=-20;whiteSpace=wrap;overflow=hidden;rounded=0;" parent="1" vertex="1">
          <mxGeometry x="460" y="-560" width="190" height="120" as="geometry" />
        </mxCell>
      </root>
    </mxGraphModel>
  </diagram>
</mxfile>
